<?xml version="1.0" standalone="no"?>
<!DOCTYPE svg PUBLIC "-//W3C//DTD SVG 20010904//EN"
 "http://www.w3.org/TR/2001/REC-SVG-20010904/DTD/svg10.dtd">
<svg version="1.0" xmlns="http://www.w3.org/2000/svg"
 width="300.000000pt" height="300.000000pt" viewBox="0 0 300.000000 300.000000"
 preserveAspectRatio="xMidYMid meet">
<metadata>
Created by potrace 1.11, written by Peter Selinger 2001-2013
</metadata>
<g transform="translate(0.000000,300.000000) scale(0.100000,-0.100000)"
fill="#000000" stroke="none">
<path d="M2490 2629 c-135 -80 -283 -381 -315 -640 l-7 -56 -91 -61 c-51 -33
-166 -97 -257 -142 l-165 -82 -115 26 c-604 137 -1117 66 -1363 -189 -186
-193 -196 -414 -22 -503 69 -35 170 -36 240 -2 97 47 180 160 159 217 -12 34
-56 67 -81 59 -12 -4 -23 -23 -32 -53 -22 -85 -88 -148 -166 -157 -60 -8 -104
24 -105 75 0 41 57 143 113 202 197 206 588 301 1082 263 105 -8 123 -10 129
-17 3 -2 -46 -35 -107 -72 -184 -111 -296 -196 -407 -307 -174 -174 -253 -315
-245 -441 9 -149 136 -250 305 -244 74 2 135 26 143 55 6 23 -2 30 -73 62 -69
32 -106 66 -131 123 -94 212 101 486 539 756 l92 57 73 -14 c39 -8 164 -38
276 -67 l204 -52 4 -30 c8 -60 53 -215 81 -278 80 -175 230 -333 377 -394 129
-55 279 -63 323 -19 l24 24 -23 15 c-13 8 -50 17 -82 20 -117 10 -228 75 -302
175 -48 64 -109 192 -133 277 -26 89 -37 159 -25 152 5 -3 20 -8 34 -11 13 -2
47 -10 74 -16 28 -6 59 -13 70 -16 87 -17 120 -21 181 -23 146 -5 219 38 219
129 0 37 -5 55 -21 71 l-21 21 -35 -31 c-59 -51 -98 -61 -243 -61 -84 0 -269
21 -280 32 -17 16 -24 402 -10 514 6 52 13 65 54 109 199 210 276 430 190 539
-26 33 -79 35 -129 5z m90 -64 c36 -43 -17 -198 -113 -332 -77 -107 -81 -101
-41 58 35 140 104 289 134 289 4 0 13 -7 20 -15z m-428 -882 c-2 -153 -4 -168
-20 -166 -9 1 -102 25 -206 54 l-189 53 124 61 c68 34 160 84 204 112 44 28
82 52 85 52 3 1 4 -74 2 -166z"/>
</g>
</svg>
